# xmcd CD database file
#
# Track frame offsets:
#	150
#	22367
#	57577
#	77414
#	96785
#	115536
#	142945
#	165522
#	203035
#	219638
#
# Disc length: 3672 seconds
#
# Revision: 0
# Processed by: cddbd v1.5.2PL0 Copyright (c) Steve Scherf et al.
# Submitted via: CDex 1.70beta2
#
DISCID=830e560a
DTITLE=Douceur d'Afrique - CD1
DYEAR=2009
DGENRE=New Age
TTITLE0=Massy
TTITLE1=Sandy
TTITLE2=Yimbi
TTITLE3=Afrodisiac Edition
TTITLE4=Woza Tani Roots
TTITLE5=Near the Bush
TTITLE6=Animals Twilight
TTITLE7=Yi Moni Mambu
TTITLE8=Saakobe Freedom
TTITLE9=Sassandra Bay
EXTD=YEAR: 2009
EXTT0=
EXTT1=
EXTT2=
EXTT3=
EXTT4=
EXTT5=
EXTT6=
EXTT7=
EXTT8=
EXTT9=
PLAYORDER=
